<?xml version="1.0" standalone="no"?>
<!DOCTYPE svg PUBLIC "-//W3C//DTD SVG 1.1//EN" "http://www.w3.org/Graphics/SVG/1.1/DTD/svg11.dtd" >
<svg xmlns="http://www.w3.org/2000/svg">
<metadata>Generated by IcoMoon</metadata>
<defs>
<font id="kai-icons" horiz-adv-x="1024">
<font-face units-per-em="1024" ascent="960" descent="-64" />
<missing-glyph horiz-adv-x="1024" />
<glyph unicode="&#x20;" horiz-adv-x="512" d="" />
<glyph unicode="&#xe900;" glyph-name="arrow" d="M210.363 62.147l125.406-115.76 463.028 501.613-463.028 501.613-125.406-115.76 356.172-385.853z" />
<glyph unicode="&#xe901;" glyph-name="checkbox-checked" d="M418.909 960h186.182c231.357 0 418.909-187.552 418.909-418.909v-186.182c0-231.357-187.552-418.909-418.909-418.909h-186.182c-231.357 0-418.909 187.552-418.909 418.909v186.182c0 231.357 187.552 418.909 418.909 418.909zM418.909 866.909c-179.944 0-325.818-145.874-325.818-325.818v-186.182c0-179.944 145.874-325.818 325.818-325.818h186.182c179.944 0 325.818 145.874 325.818 325.818v186.182c0 179.944-145.874 325.818-325.818 325.818h-186.182zM311.876 562.225l-65.206-66.438 257.415-252.641 459.428 450.908-65.206 66.438-394.222-386.911z" />
<glyph unicode="&#xe902;" glyph-name="checkbox-unchecked" d="M418.909 960h186.182c231.357 0 418.909-187.552 418.909-418.909v-186.182c0-231.357-187.552-418.909-418.909-418.909h-186.182c-231.357 0-418.909 187.552-418.909 418.909v186.182c0 231.357 187.552 418.909 418.909 418.909zM418.909 866.909c-179.944 0-325.818-145.874-325.818-325.818v-186.182c0-179.944 145.874-325.818 325.818-325.818h186.182c179.944 0 325.818 145.874 325.818 325.818v186.182c0 179.944-145.874 325.818-325.818 325.818h-186.182z" />
<glyph unicode="&#xe903;" glyph-name="bluetooth" d="M551.463 802.99v-234.89l117.445 117.445-117.445 117.445zM551.463 330.374v-234.929l117.445 117.484-117.445 117.445zM510.149-61.503c-7.326 0-14.809 1.418-21.898 4.372-21.386 8.901-35.249 29.578-35.249 52.736v334.848l-152.34-152.261c-19.22-19.259-50.373-19.259-69.632 0-19.22 19.22-19.22 50.373 0 69.593l201.531 201.492-201.452 201.452c-19.22 19.22-19.22 50.373 0 69.593 19.22 19.259 50.412 19.259 69.632 0l152.261-152.261v334.769c0 23.158 13.863 43.835 35.249 52.736 21.465 8.98 45.883 4.057 62.267-12.367l208.896-208.935c13.036-12.997 20.204-30.326 20.204-48.719 0-18.432-7.168-35.761-20.204-48.758l-187.589-187.51 187.589-187.628c13.036-12.997 20.204-30.326 20.204-48.719 0-18.432-7.168-35.761-20.204-48.758l-208.896-208.896c-10.988-10.988-25.521-16.778-40.369-16.778v0z" />
<glyph unicode="&#xe904;" glyph-name="calendar" d="M512 309.201v0c38.586 0 69.818-31.232 69.818-69.818s-31.232-69.818-69.818-69.818c-38.586 0-69.818 31.232-69.818 69.818s31.232 69.818 69.818 69.818v0zM279.273 309.201v0c38.586 0 69.818-31.232 69.818-69.818s-31.232-69.818-69.818-69.818c-38.586 0-69.818 31.232-69.818 69.818s31.232 69.818 69.818 69.818v0zM744.727 541.929v0c38.586 0 69.818-31.232 69.818-69.818s-31.232-69.818-69.818-69.818c-38.586 0-69.818 31.232-69.818 69.818s31.232 69.818 69.818 69.818v0zM512 541.929v0c38.586 0 69.818-31.232 69.818-69.818s-31.232-69.818-69.818-69.818c-38.586 0-69.818 31.232-69.818 69.818s31.232 69.818 69.818 69.818v0zM279.273 541.929v0c38.586 0 69.818-31.232 69.818-69.818s-31.232-69.818-69.818-69.818c-38.586 0-69.818 31.232-69.818 69.818s31.232 69.818 69.818 69.818v0zM46.545-16.617v698.182h930.909v-698.182h-930.909zM978.246 960h-931.7c-25.693 0-46.545-20.015-46.545-45.708v-930.071c0-25.74 20.061-47.383 45.754-47.383h931.7c25.693 0 46.545 21.69 46.545 47.383v930.071c0 25.74-20.061 45.708-45.754 45.708v0z" />
<glyph unicode="&#xe905;" glyph-name="camera" d="M810.667 384c0 164.949-133.717 298.667-298.667 298.667s-298.667-133.717-298.667-298.667c0-164.949 133.717-298.667 298.667-298.667s298.667 133.717 298.667 298.667zM934.955 768c49.195 0 89.045-39.851 89.045-88.96v-590.080c0-49.109-39.851-88.96-89.045-88.96h-845.909c-49.195 0-89.045 39.851-89.045 88.96v590.080c0 49.109 39.851 88.96 89.045 88.96h189.184l55.68 81.237c19.883 29.867 50.091 46.763 92.757 46.763h170.667c42.667 0 71.979-16.896 92.757-46.763l55.68-81.237h189.184zM512 597.333c-117.803 0-213.333-95.531-213.333-213.333 0-117.845 95.531-213.333 213.333-213.333 117.845 0 213.333 95.488 213.333 213.333 0 117.803-95.488 213.333-213.333 213.333z" />
<glyph unicode="&#xe906;" glyph-name="radio-button-selected" d="M512 960c282.77 0 512-229.23 512-512s-229.23-512-512-512c-282.77 0-512 229.23-512 512s229.23 512 512 512zM512 866.909c-231.357 0-418.909-187.552-418.909-418.909s187.552-418.909 418.909-418.909c231.357 0 418.909 187.552 418.909 418.909s-187.552 418.909-418.909 418.909zM512 727.273c154.238 0 279.273-125.035 279.273-279.273s-125.035-279.273-279.273-279.273c-154.238 0-279.273 125.035-279.273 279.273s125.035 279.273 279.273 279.273z" />
<glyph unicode="&#xe907;" glyph-name="contacts" d="M512 541.091c-77.126 0-139.636 62.511-139.636 139.636v139.636c0 77.126 62.511 139.636 139.636 139.636s139.636-62.511 139.636-139.636v-139.636c0-77.126-62.511-139.636-139.636-139.636zM581.818 448c167.098 0 302.545-135.447 302.545-302.545v-209.455h-744.727v209.455c0 167.098 135.447 302.545 302.545 302.545h139.636z" />
<glyph unicode="&#xe908;" glyph-name="download" d="M931.002 28.905h-838.004c-25.647 0-46.452-20.806-46.452-46.452s20.806-46.452 46.452-46.452h838.004c25.647 0 46.452 20.806 46.452 46.452s-20.806 46.452-46.452 46.452v0zM651.636 541.091v372.364c0 25.693-20.852 46.545-46.545 46.545h-186.182c-25.693 0-46.545-20.852-46.545-46.545v-372.364h-227.188c-20.108 0-30.767-23.831-17.361-38.819l349.51-390.284c18.479-20.713 50.874-20.713 69.353 0l349.51 390.284c13.405 14.988 2.793 38.819-17.361 38.819h-227.188z" />
<glyph unicode="&#xe909;" glyph-name="email" d="M445.286 474.717l-373.062 383.441c13.638 5.585 28.486 8.751 44.125 8.751h791.273c15.639 0 30.534-3.165 44.125-8.751l-373.015-383.441c-17.687-18.153-41.379-28.16-66.746-28.16-25.321 0-49.059 10.007-66.7 28.16zM645.446 409.809l370.921 381.207c4.701-12.66 7.633-26.159 7.633-40.448v-605.091c0-64.279-52.084-116.364-116.364-116.364h-791.273c-64.279 0-116.364 52.084-116.364 116.364v605.091c0 14.289 2.932 27.788 7.633 40.448l370.921-381.207c35.328-36.352 82.711-56.32 133.399-56.32h0.047c50.688 0 98.071 19.968 133.446 56.32z" />
<glyph unicode="&#xe90a;" glyph-name="favorite-off" d="M283.091 913.455c-75.543 0-146.758-30.534-200.192-85.737-53.574-55.482-83.13-129.071-82.899-207.407 0-78.336 29.744-151.785 83.364-207.22l407.692-421.562c5.632-5.865 13.219-8.983 20.62-8.983 7.354 0 14.941 2.932 20.62 8.751l408.576 420.911c53.574 55.436 83.132 129.071 83.132 207.407 0.231 78.336-29.092 151.971-82.713 207.407s-124.602 85.737-200.378 85.737c-75.776 0-146.944-30.487-200.611-85.969l-27.974-28.951-28.439 29.417c-53.62 55.436-125.021 86.202-200.797 86.202zM283.091 820.364c50.269 0 97.839-20.527 133.865-57.809l95.372-98.63 94.906 98.164c35.933 37.143 83.409 57.577 133.679 57.577s97.699-20.34 133.446-57.344c36.631-37.888 56.692-88.436 56.553-142.708 0-54.039-20.248-104.727-56.879-142.569l-362.17-373.155-361.612 373.946c-36.864 38.074-57.159 88.716-57.159 142.708-0.139 53.853 20.015 104.448 56.786 142.476 35.747 36.957 83.084 57.344 133.213 57.344z" />
<glyph unicode="&#xe90b;" glyph-name="favorite-on" d="M941.287 827.020c-53.574 55.436-124.602 85.737-200.378 85.737s-146.944-30.487-200.564-85.969l-28.020-28.951-28.393 29.417c-53.667 55.436-125.068 86.202-200.844 86.202-75.543 0-146.758-30.534-200.145-85.737-53.62-55.482-83.177-129.071-82.945-207.407 0-78.383 29.744-151.785 83.364-207.22l407.692-421.562c5.632-5.865 13.219-8.983 20.666-8.983 7.354 0 14.941 2.886 20.62 8.751l408.529 420.911c53.62 55.436 83.132 129.071 83.132 207.407 0.231 78.336-29.092 151.971-82.713 207.407z" />
<glyph unicode="&#xe90c;" glyph-name="message" d="M744.727 634.182h-465.455c-25.693 0-46.545 20.852-46.545 46.545s20.852 46.545 46.545 46.545h465.455c25.693 0 46.545-20.852 46.545-46.545s-20.852-46.545-46.545-46.545zM744.727 401.455h-465.455c-25.693 0-46.545 20.852-46.545 46.545s20.852 46.545 46.545 46.545h465.455c25.693 0 46.545-20.852 46.545-46.545s-20.852-46.545-46.545-46.545zM907.636 960h-791.273c-64.279 0-116.364-52.084-116.364-116.364v-558.545c0-64.279 52.084-116.364 116.364-116.364h117.201v-200.145c0-28.951 35.002-43.473 55.436-22.993l222.999 223.139h395.636c64.279 0 116.364 52.084 116.364 116.364v558.545c0 64.279-52.084 116.364-116.364 116.364z" />
<glyph unicode="&#xe90d;" glyph-name="mic" horiz-adv-x="573" d="M525.64 509.44c26.419 0 47.8-21.381 47.8-47.8v-47.759c0-141.804-103.547-259.523-238.92-282.378v-147.702c0-26.419-21.381-47.8-47.8-47.8s-47.8 21.381-47.8 47.8v148.070c-139.1 23.306-238.92 149.75-238.92 291.963v37.806c0 26.419 21.381 47.8 47.8 47.8 26.378 0 47.759-21.381 47.759-47.8v-39.24c0-99.82 91.382-199.68 191.16-199.68 81.92 0 191.16 79.421 191.16 191.16v47.759c0 26.419 21.381 47.8 47.759 47.8zM286.72 304.64c-67.871 0-122.88 55.009-122.88 122.88v409.6c0 67.871 55.009 122.88 122.88 122.88s122.88-55.009 122.88-122.88v-409.6c0-67.871-55.009-122.88-122.88-122.88z" />
<glyph unicode="&#xe90e;" glyph-name="phone" d="M1021.091 159.010c0 0-53.606-131.277-61.184-148.941-0.051-0.051-0.051-0.102-0.051-0.102-21.197-40.909-73.677-86.938-134.4-69.581-394.496 112.998-705.843 422.042-821.35 814.694-17.92 60.826 26.163 103.322 67.686 128.819 14.592 8.909 154.368 73.165 154.368 73.165 18.842 7.885 40.397-0.666 48.128-19.046l125.491-299.469c7.731-18.381-1.331-39.629-20.224-47.514l-130.202-54.272c88.269-145.562 211.2-267.162 356.301-356.352l47.514 121.651c7.373 18.944 28.314 28.416 46.797 21.197l301.005-117.043c18.483-7.168 27.494-28.314 20.122-47.206z" />
<glyph unicode="&#xe90f;" glyph-name="radio-button-unselected" d="M512 960c282.77 0 512-229.23 512-512s-229.23-512-512-512c-282.77 0-512 229.23-512 512s229.23 512 512 512zM512 866.909c-231.357 0-418.909-187.552-418.909-418.909s187.552-418.909 418.909-418.909c231.357 0 418.909 187.552 418.909 418.909s-187.552 418.909-418.909 418.909z" />
<glyph unicode="&#xe910;" glyph-name="search" d="M799.418 257.117l204.241-204.241c26.624-26.624 26.624-69.865 0-96.535-26.717-26.671-69.865-26.671-96.582 0l-204.195 204.241c-73.123-53.434-163.235-84.945-260.701-84.945-244.224 0-442.182 197.958-442.182 442.182 0 244.177 197.958 442.182 442.182 442.182s442.182-198.004 442.182-442.182c0-97.513-31.558-187.578-84.945-260.701zM442.182 212.154c168.82 0 305.664 136.844 305.664 305.664 0 168.774-136.844 305.617-305.664 305.617s-305.617-136.844-305.617-305.617c0-168.82 136.797-305.664 305.617-305.664z" />
<glyph unicode="&#xe911;" glyph-name="settings" d="M512 320c70.699 0 128 57.301 128 128s-57.301 128-128 128c-70.699 0-128-57.301-128-128s57.301-128 128-128zM938.667 528.043l85.333-11.136v-140.459l-85.419-11.179c-11.307-59.52-34.645-114.731-67.499-162.944l52.096-67.925-99.029-99.285-67.883 52.352c-48.768-33.195-104.704-56.533-164.949-67.499l-10.88-83.968h-140.032l-11.093 85.12c-59.179 11.733-114.005 35.541-161.835 68.779l-68.395-52.779-99.029 99.285 53.419 69.717c-31.915 47.957-54.528 102.656-65.365 161.493l-88.107 11.477v140.459l89.045 11.691c11.392 58.069 34.347 111.957 66.347 159.232l-54.571 71.125 99.029 99.285 70.955-54.699c47.872 32.555 102.528 55.68 161.451 66.901l11.307 86.912h140.032l11.349-86.955c58.923-11.221 113.664-34.389 161.536-66.987l68.437 52.821 99.029-99.285-52.565-68.651c32.768-48.213 56.021-103.381 67.285-162.901zM512 149.333c164.693 0 298.667 133.973 298.667 298.667s-133.973 298.667-298.667 298.667c-164.693 0-298.667-133.973-298.667-298.667s133.973-298.667 298.667-298.667zM512 682.667c129.365 0 234.667-105.301 234.667-234.667s-105.301-234.667-234.667-234.667c-129.365 0-234.667 105.301-234.667 234.667s105.301 234.667 234.667 234.667z" />
<glyph unicode="&#xe912;" glyph-name="video" d="M778.24 652.8v40.96c0 45.22-36.7 81.92-81.92 81.92h-614.4c-45.22 0-81.92-36.7-81.92-81.92v-491.52c0-45.22 36.7-81.92 81.92-81.92h614.4c45.22 0 81.92 36.7 81.92 81.92v40.96l245.76-81.92v573.44l-245.76-81.92z" />
<glyph unicode="&#xe913;" glyph-name="wifi" d="M509.446 682.65c131.712 0 259.371-44.715 359.467-125.867 21.888-17.749 25.6-50.005 8.277-71.893-9.771-12.373-24.405-19.456-40.107-19.456-11.52 0-22.272 3.84-31.189 11.051-82.048 66.901-187.349 103.765-296.448 103.765s-214.357-36.864-296.448-103.765c-8.917-7.253-19.712-11.051-31.232-11.051-15.659 0-30.293 7.083-40.064 19.456-17.323 21.888-13.611 54.144 8.277 71.893 100.139 81.152 227.797 125.867 359.467 125.867zM509.446 469.316c82.859 0 163.285-29.696 226.517-83.669 20.949-17.92 23.936-48.939 6.699-70.656-9.557-12.075-23.893-19.029-39.381-19.029-12.459 0-24.704 4.523-34.432 12.757-44.544 37.504-101.163 58.197-159.403 58.197s-114.859-20.693-159.403-58.24c-9.728-8.192-21.973-12.715-34.432-12.715-15.488 0-29.824 6.955-39.381 19.029-17.237 21.717-14.251 52.736 6.699 70.656 63.232 53.973 143.659 83.669 226.517 83.669zM1000.633 721.109c21.291-17.408 24.405-49.451 6.997-71.467-9.813-12.416-25.088-19.797-40.789-19.797-11.648 0-22.485 3.84-31.403 11.179-120.149 98.389-271.445 152.533-425.984 152.533-154.581 0-305.877-54.144-426.027-152.533-8.875-7.339-19.712-11.179-31.36-11.179-15.744 0-30.976 7.381-40.789 19.797-17.451 22.016-14.293 54.059 6.997 71.467 138.24 112.768 312.704 174.891 491.179 174.891s352.939-62.123 491.179-174.891zM509.446 247.441c58.923 0 106.667-47.744 106.667-106.667s-47.744-106.667-106.667-106.667c-58.923 0-106.667 47.744-106.667 106.667s47.744 106.667 106.667 106.667z" />
</font>
</defs>
</svg>
